<?xml version="1.0" encoding="utf-8"?>
<!-- Generator: Adobe Illustrator 24.1.3, SVG Export Plug-In . SVG Version: 6.00 Build 0)  -->
<svg version="1.1" id="Livello_1" xmlns="http://www.w3.org/2000/svg" xmlns:xlink="http://www.w3.org/1999/xlink" x="0px" y="0px"
	 viewBox="0 0 45.4 43.4" style="enable-background:new 0 0 45.4 43.4;" xml:space="preserve">
<style type="text/css">
	.st0{fill:#FDFDFD;}
	.st1{fill:#D92B4F;}
</style>
<g>
	<path class="st0" d="M38.5,9.8c0,7.9,0,15.8,0,23.7c0,0,0,0.1-0.1,0.1c-0.3,1.3-1.4,2-2.8,2c-8.5,0-17,0-25.5,0
		c-1.6,0-2.8-1.1-2.8-2.5c0-7.6,0-15.3,0-22.9c0-0.2,0-0.5,0.1-0.7c0.3-1.1,1.4-1.8,2.8-1.8c6.5,0,13.1,0,19.6,0c2,0,3.9,0,5.9,0
		c1.2,0,2,0.5,2.5,1.5C38.4,9.4,38.4,9.6,38.5,9.8z M36.7,16c-9.2,0-18.3,0-27.5,0c0,0.1,0,0.2,0,0.3c0,5.6,0,11.1,0,16.7
		c0,0.8,0.3,1,1.2,1c8.4,0,16.8,0,25.2,0c0.8,0,1.2-0.3,1.2-1c0-5.6,0-11.2,0-16.7C36.7,16.2,36.7,16.1,36.7,16z M9.2,14.3
		c9.2,0,18.3,0,27.5,0c0-0.1,0-0.2,0-0.3c0-1.2,0-2.4,0-3.6c0-0.8-0.3-1-1.2-1c-8.4,0-16.8,0-25.2,0c-0.1,0-0.2,0-0.3,0
		c-0.5,0-0.9,0.4-0.9,0.8C9.2,11.5,9.2,12.9,9.2,14.3z"/>
	<path class="st1" d="M26.6,19.3c0,0.1-0.1,0.2-0.1,0.3c-1.8,3.8-3.6,7.6-5.4,11.4c-0.2,0.5-0.7,0.7-1.2,0.5
		c-0.5-0.2-0.7-0.7-0.4-1.2c1.8-3.8,3.6-7.6,5.4-11.4c0.2-0.4,0.6-0.6,1.1-0.6C26.3,18.5,26.6,18.8,26.6,19.3z"/>
	<path class="st0" d="M14.4,25c0.8,0.6,1.6,1.1,2.4,1.7c0.4,0.3,0.8,0.6,1.2,0.9c0.5,0.3,0.6,0.8,0.2,1.2c-0.3,0.4-0.9,0.4-1.4,0.1
		c-1.5-1.1-2.9-2.1-4.4-3.2c-0.6-0.4-0.6-1,0-1.4c1.5-1.1,2.9-2.1,4.4-3.2c0.5-0.3,1-0.3,1.4,0.1c0.3,0.4,0.2,0.9-0.2,1.2
		c-1.1,0.8-2.2,1.6-3.2,2.3C14.6,24.8,14.5,24.9,14.4,25z"/>
	<path class="st0" d="M31.5,25c-0.7-0.5-1.4-1-2.1-1.5c-0.5-0.4-1-0.7-1.5-1.1c-0.5-0.3-0.5-0.8-0.2-1.2c0.3-0.4,0.9-0.4,1.3-0.1
		c1.5,1.1,3,2.1,4.4,3.2c0.6,0.4,0.6,1,0,1.4c-1.5,1.1-2.9,2.1-4.4,3.2c-0.5,0.3-1,0.3-1.4-0.1c-0.3-0.4-0.3-0.9,0.2-1.2
		c1.1-0.8,2.2-1.6,3.3-2.4C31.3,25.2,31.4,25.1,31.5,25z"/>
	<path class="st0" d="M31.1,11c0.9,0,1.8,0,2.6,0c0.6,0,1,0.3,1,0.8c0,0.5-0.4,0.8-1,0.8c-1.8,0-3.5,0-5.3,0c-0.6,0-1-0.3-1-0.8
		c0-0.5,0.4-0.8,1-0.8C29.4,11,30.3,11,31.1,11z"/>
	<path class="st0" d="M12,11c0.5,0,0.9,0.4,0.9,0.8c0,0.5-0.4,0.8-0.9,0.8c-0.5,0-0.9-0.4-0.9-0.8C11.1,11.4,11.5,11,12,11z"/>
	<path class="st0" d="M16.5,11.8c0,0.4-0.4,0.8-0.9,0.8c-0.5,0-0.9-0.4-0.9-0.8c0-0.4,0.4-0.8,0.9-0.8C16.1,11,16.5,11.4,16.5,11.8z
		"/>
	<path class="st0" d="M19.3,12.6c-0.5,0-0.9-0.4-0.9-0.8c0-0.5,0.4-0.8,0.9-0.8c0.5,0,0.9,0.4,0.9,0.8
		C20.2,12.3,19.8,12.6,19.3,12.6z"/>
</g>
</svg>
