<?xml version="1.0" encoding="utf-8"?>
<!-- Generator: Adobe Illustrator 24.1.3, SVG Export Plug-In . SVG Version: 6.00 Build 0)  -->
<svg version="1.1" id="Livello_1" xmlns="http://www.w3.org/2000/svg" xmlns:xlink="http://www.w3.org/1999/xlink" x="0px" y="0px"
	 viewBox="0 0 45.4 43.4" style="enable-background:new 0 0 45.4 43.4;" xml:space="preserve">
<style type="text/css">
	.st0{fill:#FFFFFF;}
	.st1{fill:#D92B4F;}
	.st2{fill:none;stroke:#FFFFFF;stroke-miterlimit:10;}
</style>
<g>
	<path class="st0" d="M14.1,11.7c-1.5,0-3,0-4.5,0c-0.5,0-1-0.1-0.9-0.7c0-0.7,0.5-0.5,0.9-0.5c3.1,0,6.2,0,9.3,0
		c0.4,0,0.9-0.1,0.9,0.5c0,0.7-0.4,0.7-0.9,0.7C17.3,11.7,15.7,11.7,14.1,11.7L14.1,11.7z"/>
	<path class="st0" d="M14.2,19.4c-1.6,0-3.1,0-4.7,0c-0.4,0-0.9,0.1-0.9-0.6c0-0.6,0.4-0.6,0.9-0.6c3.2,0,6.3,0,9.5,0
		c0.4,0,0.9,0,0.8,0.7c0,0.7-0.5,0.6-0.9,0.6C17.4,19.4,15.8,19.4,14.2,19.4z"/>
	<path class="st0" d="M14.2,22.7c-1.6,0-3.1,0-4.7,0c-0.4,0-0.9,0.1-0.9-0.6c0-0.6,0.4-0.6,0.9-0.6c3.2,0,6.3,0,9.5,0
		c0.4,0,0.9,0,0.8,0.7c0,0.7-0.5,0.6-0.9,0.6C17.4,22.7,15.8,22.7,14.2,22.7z"/>
	<path class="st0" d="M12.2,15.8c-0.9,0-1.9,0-2.8,0c-0.4,0-0.7-0.2-0.7-0.7c0-0.4,0.3-0.5,0.7-0.5c1.9,0,3.8,0,5.8,0
		c0.5,0,0.7,0.2,0.7,0.7s-0.3,0.5-0.7,0.5C14.1,15.8,13.1,15.8,12.2,15.8z"/>
	<path class="st0" d="M11.5,28.8c0.6,0,1.1,0,1.7,0c0.4,0,0.7,0.1,0.8,0.6c0,0.5-0.2,0.7-0.7,0.7c-1.3,0-2.6,0-4,0
		c-0.4,0-0.6-0.2-0.6-0.6c0-0.5,0.2-0.7,0.7-0.7C10.1,28.8,10.8,28.8,11.5,28.8z"/>
	<path class="st0" d="M11.3,26.5c-0.7,0-1.3,0-2,0c-0.4,0-0.6-0.1-0.6-0.6c0-0.4,0.2-0.6,0.6-0.6c1.4,0,2.7,0,4.1,0
		c0.4,0,0.6,0.1,0.6,0.6s-0.3,0.6-0.7,0.6C12.6,26.5,11.9,26.5,11.3,26.5z"/>
	<path class="st0" d="M11.3,33.6c-0.7,0-1.4,0-2.1,0c-0.4,0-0.5-0.3-0.5-0.7s0.2-0.5,0.5-0.5c1.4,0,2.8,0,4.2,0
		c0.3,0,0.5,0.2,0.5,0.5c0,0.4-0.1,0.7-0.5,0.7C12.7,33.6,12,33.6,11.3,33.6L11.3,33.6z"/>
	<path class="st0" d="M10.5,7.5c0.3,0,0.6,0,0.8,0c0.4,0,0.8,0,0.8,0.6c0,0.5-0.3,0.6-0.7,0.6c-0.7,0-1.3,0-2,0
		c-0.4,0-0.8,0-0.8-0.5s0.3-0.6,0.7-0.6C9.8,7.5,10.1,7.5,10.5,7.5z"/>
	<path class="st0" d="M35.8,17.1c0.3,0,0.6,0,0.8,0c0.4,0,0.8,0,0.8,0.6c0,0.5-0.3,0.6-0.7,0.6c-0.7,0-1.3,0-2,0
		c-0.4,0-0.8,0-0.8-0.5s0.3-0.6,0.7-0.6C35.1,17.1,35.4,17.1,35.8,17.1z"/>
	<path class="st0" d="M40.8,26.8c0-1.2-0.4-1.5-1.5-1.5c-3.6,0.1-7.3,0-10.9,0l0,0c-3.7,0-7.5,0-11.2,0c-1,0-1.4,0.3-1.4,1.4
		c0.1,3.9,0.1,7.7,0,11.6c0,1.1,0.3,1.4,1.4,1.4c7.4,0,14.7,0,22.1,0c1.1,0,1.6-0.3,1.5-1.5C40.7,34.3,40.7,30.5,40.8,26.8z
		 M37.5,26.5c0,0.1,0.1,0.1,0.1,0.2c-1.8,1.1-3.7,2.1-5.3,3.5c-2.5,2.2-4.7,1.9-7.3,0c-1.7-1.3-3.7-2.1-5.5-3.2
		c-0.1-0.1-0.2-0.2-0.6-0.5H37.5z M39.6,37.3c0,0.9-0.2,1.1-1.1,1.1c-6.8,0-13.7,0-20.5,0c-0.8,0-1-0.3-1-1.1c0-3.3,0-6.7,0-10.4
		c3.3,1.9,6.5,3.6,9.5,5.5c1.7,1,3,1.3,4.7,0c2.3-1.7,4.8-3.1,7.3-4.7c0.3-0.2,0.6-0.6,1-0.4c0.5,0.2,0.2,0.7,0.2,1
		C39.6,31.3,39.5,34.3,39.6,37.3z"/>
	<path class="st0" d="M24.1,5.5c1.5,1.3,3,2.7,4.3,4.3c0.7,0.7,0.5,1.1,0.5,1.8c0,0.4,0,0.8,0.6,0.8c0.5,0,0.6-0.4,0.6-0.8
		c0.1-1.2,0-2.2-1-3c-1.4-1.2-2.7-2.5-3.9-3.9C24.7,4.1,24.1,4,23.3,4C17.7,4,12.2,4,6.6,4C5.3,3.8,5,4.2,5,5.3c0,4.8,0,9.5,0,14.3
		C5,25.8,5,32,5,38.3c0,0.7,0,1.3,1,1.3c2.5,0,5.1,0,7.6,0c0.4,0,0.9,0,0.9-0.6c0-0.7-0.5-0.6-0.9-0.6c-2,0-4.1-0.1-6.1,0
		c-1,0-1.4-0.2-1.4-1.3c0-10.2,0-20.5,0-30.7c0-1,0.3-1.4,1.3-1.4c5.1,0.1,10.2,0,15.3,0C23.3,5,23.8,4.9,24.1,5.5z"/>
	<path class="st0" d="M40.8,14.6c0-1-0.4-1.2-1.2-1.2c-5.1,0-10.3,0-15.4,0c-0.9,0-1.2,0.3-1.2,1.2c0,2.7,0.1,5.5,0,8.2
		c0,1.1,0.4,1.3,1.3,1.3c2.5,0,5,0,7.5,0c2.6,0,5.2,0,7.8,0c0.9,0,1.3-0.2,1.3-1.2C40.7,20.2,40.7,17.4,40.8,14.6z M38.5,22.9
		c-2.3,0-4.5,0-6.8,0c-2.2,0-4.4,0-6.6,0c-0.8,0-1.1-0.2-1.1-1c0-2.1,0.1-4.1,0-6.2c0-0.8,0.3-1,1.1-1c4.5,0,9,0,13.4,0
		c0.7,0,1.1,0.1,1,0.9c0,2.1,0,4.2,0,6.4C39.6,22.7,39.3,22.9,38.5,22.9z"/>
	<path class="st1" d="M24.1,5.5c0,1,0,2,0,3c0,0.9,0.4,1.4,1.3,1.4c1,0,2,0,3,0C26.3,8.9,24.8,7.5,24.1,5.5z"/>
	<path class="st1" d="M24.1,5.5c0.8,2.1,2.2,3.5,4.3,4.3C27,8.2,25.6,6.8,24.1,5.5z"/>
	<path class="st0" d="M37.7,20c0,0.6-0.4,0.5-0.8,0.5c-1.6,0-3.3,0-4.9,0c-0.4,0-0.8,0-0.8-0.6c0-0.5,0.3-0.6,0.7-0.6
		c0.8,0,1.7,0,2.5,0s1.6,0,2.4,0C37.3,19.4,37.7,19.4,37.7,20z"/>
	<circle class="st0" cx="27.7" cy="18.7" r="1.2"/>
	<path class="st2" d="M24,4.8c0,1.1,0,2,0,2.7c0,1,0.1,2.1,1.1,2.3c1.4,0.3,3.7,0.1,3.7,0.1"/>
</g>
</svg>
