<?xml version="1.0" encoding="utf-8"?>
<!-- Generator: Adobe Illustrator 24.1.3, SVG Export Plug-In . SVG Version: 6.00 Build 0)  -->
<svg version="1.1" id="Livello_1" xmlns="http://www.w3.org/2000/svg" xmlns:xlink="http://www.w3.org/1999/xlink" x="0px" y="0px"
	 viewBox="0 0 45.4 43.4" style="enable-background:new 0 0 45.4 43.4;" xml:space="preserve">
<style type="text/css">
	.st0{fill:#D92B4F;}
	.st1{fill:#FFFFFF;}
	.st2{fill:none;}
</style>
<polygon class="st0" points="28.2,18.5 23.6,20.4 23.6,14.8 28.2,13.2 "/>
<path class="st1" d="M33.8,6.2c-3.3,0-6.7,0-10,0"/>
<path class="st1" d="M23.8,4.8c3.3,0,6.7,0,10,0"/>
<polygon class="st2" points="23.6,20.3 25.3,19.6 25.9,19.4 28,18.5 28,13.3 23.6,14.7 23.6,16.3 23.6,16.9 "/>
<polygon class="st2" points="19.3,12.6 23.2,14 27.1,12.6 23.2,11.3 "/>
<polygon class="st2" points="18.4,18.5 21.4,19.8 22.7,20.3 22.7,20 22.7,19.6 22.7,18.9 22.7,16.9 22.7,16.3 22.7,14.7 18.4,13.3 
	18.4,16.3 18.4,16.9 "/>
<path class="st1" d="M20.2,26.2h-3.5l0,0C17.9,26.2,19.1,26.2,20.2,26.2L20.2,26.2z"/>
<path class="st1" d="M25.9,26.2L25.9,26.2c1.2,0,2.3,0,3.5,0l0,0l0,0l0,0H25.9z"/>
<path class="st1" d="M23.1,40.6c2.2,0,4.5,0,6.7,0l0,0l0,0C27.5,40.6,25.3,40.6,23.1,40.6z"/>
<path class="st1" d="M19.5,36.4L19.5,36.4c-0.2,0-0.4,0-0.7,0h0.1C19.2,36.4,19.3,36.4,19.5,36.4z"/>
<path class="st1" d="M37.2,33.2L37.2,33.2c-0.7,0-1.6,0-2.4,0C35.6,33.2,36.4,33.2,37.2,33.2z"/>
<path class="st1" d="M27.2,36.4c0.3,0,0.6,0.1,1,0.2C27.9,36.5,27.6,36.4,27.2,36.4z"/>
<path class="st1" d="M26.6,36.3L26.6,36.3c0-1,0-2.1,0-3.1l0,0C26.6,34.3,26.6,35.3,26.6,36.3z"/>
<path class="st1" d="M6.5,25.8c0,0.1,0,0.2,0,0.4l0,0C6.5,26,6.5,25.9,6.5,25.8c0-5.8,0-11.5,0-17.3c0-1.5,0.9-2.4,2.4-2.4
	c3.5,0,12,0.1,16.1,0.1l1.2-1.4c-4.4,0-14.3,0-18,0C7.5,5,6.9,5.2,6.4,5.6C5.6,6.3,5.2,7.2,5.1,8.2c0,0.6,0,1.2,0,1.7
	c0,1.1,0,3.8,0,4.9l1.4-0.3C6.5,18.3,6.5,22.1,6.5,25.8z"/>
<path class="st1" d="M5.9,31.9c-0.2-0.3-0.4-0.6-0.5-0.9C5.5,31.3,5.7,31.6,5.9,31.9z"/>
<path class="st1" d="M7.1,32.8c0.5,0.3,1.1,0.4,1.7,0.4l0,0c-0.7,0-1.5-0.2-2-0.6C6.9,32.7,7,32.8,7.1,32.8z"/>
<path class="st1" d="M6.3,32.2C6.1,32.1,6,32,5.9,31.9C6,32,6.1,32.1,6.3,32.2z"/>
<path class="st1" d="M6.7,32.6c-0.1-0.1-0.3-0.2-0.4-0.3C6.4,32.4,6.6,32.5,6.7,32.6z"/>
<path class="st1" d="M15.4,39.4c0.1-0.4,0.2-0.8,0.4-1.2C15.6,38.6,15.5,39,15.4,39.4z"/>
<path class="st1" d="M15.4,39.9L15.4,39.9c0,0,0-0.1,0-0.2C15.4,39.7,15.4,39.8,15.4,39.9z"/>
<path class="st1" d="M29.4,26.2h7l0,0c1.1,0,2.1,0,3.2,0l0,0H29.4L29.4,26.2z"/>
<path class="st1" d="M30.7,39.5L30.7,39.5c0,0,0,0.1,0,0.2C30.7,39.6,30.7,39.5,30.7,39.5z"/>
<polygon class="st1" points="16.8,26.2 16.8,26.2 16.8,26.2 "/>
<path class="st1" d="M25.9,26.2h-2.8H25.9L25.9,26.2h3.5l0,0C28.2,26.2,27,26.2,25.9,26.2L25.9,26.2z"/>
<path class="st1" d="M27.2,37.8L27.2,37.8c-1.2,0-2.5,0-3.7,0C24.7,37.8,26,37.8,27.2,37.8z"/>
<path class="st1" d="M18.9,37.8c-0.2,0-0.3,0-0.4,0.1C18.6,37.9,18.7,37.8,18.9,37.8L18.9,37.8z"/>
<path class="st1" d="M25.1,36.4c0-1.1,0-2.1,0-3.2l0,0C25.1,34.3,25.1,35.3,25.1,36.4L25.1,36.4z"/>
<path class="st1" d="M23.1,31.8c4.7,0,9.4,0,14.1,0l0,0l0,0C32.4,31.8,27.8,31.8,23.1,31.8z"/>
<path class="st1" d="M39.6,28.3c0-0.2,0-0.5,0-0.7l0,0C39.6,27.9,39.6,28.1,39.6,28.3z"/>
<path class="st1" d="M23,37.8c-0.1,0-0.2,0-0.4,0C22.7,37.8,22.9,37.8,23,37.8L23,37.8z"/>
<path class="st1" d="M17.7,38.2c-0.3,0.2-0.5,0.5-0.7,0.9C17.2,38.7,17.4,38.4,17.7,38.2z"/>
<path class="st1" d="M41,29.6c0,0.3,0,0.6-0.1,0.9c0-0.1,0-0.1,0-0.2c0,0,0-0.1,0.1-0.1c0-2.7,0-5.5,0-8.3C41,24.4,41,27,41,29.6z"
	/>
<path class="st1" d="M8.5,31.8c0.1,0,0.3,0,0.4,0c-0.6,0-1-0.1-1.4-0.3C7.8,31.7,8.2,31.8,8.5,31.8z"/>
<path class="st1" d="M29.2,39.2c0-0.1-0.1-0.1-0.1-0.1C29.1,39.1,29.2,39.2,29.2,39.2L29.2,39.2z"/>
<path class="st1" d="M39.6,29.4c0-0.1,0-0.3,0-0.4c0,0.2,0,0.4,0,0.5V29.4z"/>
<path class="st1" d="M6.6,29.8c0,0.4,0.1,0.7,0.3,1c-0.2-0.3-0.3-0.8-0.3-1.3C6.6,29.6,6.6,29.7,6.6,29.8z"/>
<polygon class="st1" points="6.5,26.2 6.5,26.2 9.8,26.2 16.8,26.2 16.8,26.2 "/>
<path class="st1" d="M8.9,33.2c0.8,0,1.6,0,2.4,0c-0.8,0-1.7,0-2.5,0C8.8,33.2,8.9,33.2,8.9,33.2z"/>
<polygon class="st1" points="23.1,26.2 20.2,26.2 20.2,26.2 "/>
<path class="st1" d="M30.3,38.2c0.2,0.4,0.3,0.8,0.4,1.2C30.7,39,30.5,38.6,30.3,38.2z"/>
<path class="st1" d="M30.7,39.9c0-0.1,0-0.2,0-0.2S30.7,39.8,30.7,39.9L30.7,39.9z"/>
<path class="st1" d="M15.4,39.5c0,0.1,0,0.1,0,0.2C15.4,39.6,15.4,39.5,15.4,39.5L15.4,39.5z"/>
<path class="st1" d="M30.1,40.6c0.2,0,0.4-0.1,0.5-0.3c-0.2,0.2-0.4,0.3-0.8,0.3C29.9,40.6,30,40.6,30.1,40.6z"/>
<path class="st1" d="M40.2,31.9c-0.1,0.1-0.2,0.2-0.3,0.3C40,32.1,40.1,32,40.2,31.9z"/>
<path class="st1" d="M37.3,33.2c0.6,0,1.1-0.1,1.7-0.4c0.1-0.1,0.3-0.2,0.4-0.2C38.8,33,38.1,33.2,37.3,33.2L37.3,33.2z"/>
<path class="st1" d="M40.7,30.9c-0.1,0.3-0.3,0.6-0.5,0.9C40.4,31.6,40.6,31.3,40.7,30.9z"/>
<path class="st1" d="M39.8,32.3c-0.1,0.1-0.2,0.2-0.4,0.3C39.5,32.5,39.7,32.4,39.8,32.3z"/>
<path class="st1" d="M19.5,33.2L19.5,33.2c0,1.1,0,2.1,0,3.1l0,0C19.5,35.3,19.5,34.3,19.5,33.2z"/>
<path class="st1" d="M16.4,40.6L16.4,40.6c2.2,0,4.5,0,6.7,0C20.8,40.6,18.6,40.6,16.4,40.6L16.4,40.6z"/>
<path class="st1" d="M17.9,36.6c0.3-0.1,0.6-0.1,1-0.2C18.5,36.4,18.2,36.5,17.9,36.6z"/>
<path class="st1" d="M27.1,36.4h0.1c-0.2,0-0.4-0.1-0.7-0.1v0.1C26.8,36.4,27,36.4,27.1,36.4z"/>
<path class="st1" d="M37.2,6.2c1.5,0,2.4,0.8,2.4,2.4c0,5.7,0,11.5,0,17.2c0,0.1,0,0.2,0,0.4l0,0c0-0.1,0-0.3,0-0.4
	c0-3.7,0-8.3,0-12.1H41c0,2.7,0,5.4,0,8.1c0-4,0-8,0-11.9c0-0.6,0-1.2,0-1.7c0-1-0.3-1.9-1.1-2.6c-0.5-0.4-0.3-0.5-1.9-0.8
	c-3.7,0-9.2,0-13.5,0v1.4C28.5,6.2,33.7,6.2,37.2,6.2z"/>
<path class="st1" d="M5.1,13.3L5.1,13.3c0,5.4,0,11.6,0,16.9c0,0,0,0.1,0.1,0.1c0,0.1,0,0.1,0,0.2c-0.1-0.3-0.1-0.6-0.1-0.9
	C5.1,24.1,5.1,18.7,5.1,13.3z"/>
<path class="st1" d="M29.1,39.1c-0.1-0.4-0.4-0.7-0.7-0.9C28.7,38.4,29,38.7,29.1,39.1z"/>
<path class="st1" d="M18.9,37.8L18.9,37.8c1.2,0,2.4,0,3.7,0C21.4,37.8,20.1,37.8,18.9,37.8z"/>
<path class="st1" d="M23.1,37.8L23.1,37.8c0.1,0,0.2,0,0.4,0C23.4,37.8,23.3,37.8,23.1,37.8z"/>
<path class="st1" d="M27.2,37.8L27.2,37.8c0.1,0,0.3,0,0.4,0.1C27.5,37.9,27.4,37.8,27.2,37.8z"/>
<path class="st1" d="M16.9,39.2L16.9,39.2c0-0.1,0.1-0.1,0.1-0.1C17,39.1,16.9,39.1,16.9,39.2z"/>
<path class="st1" d="M9.8,26.2L9.8,26.2H6.5C7.6,26.2,8.7,26.2,9.8,26.2z"/>
<polygon class="st1" points="20.2,26.2 20.2,26.2 20.2,26.2 "/>
<polygon class="st1" points="29.4,26.2 29.4,26.2 29.4,26.2 "/>
<path class="st1" d="M9,31.8L9,31.8c4.7,0,9.4,0,14.1,0C18.4,31.8,13.7,31.8,9,31.8L9,31.8z"/>
<path class="st1" d="M6.5,27.6c0,0.2,0,0.5,0,0.7C6.5,28.1,6.5,27.9,6.5,27.6L6.5,27.6z"/>
<path class="st1" d="M37.6,31.8c0.4,0,0.7-0.1,1-0.3c-0.4,0.2-0.8,0.3-1.4,0.3C37.3,31.8,37.4,31.8,37.6,31.8z"/>
<path class="st1" d="M6.5,29.4v0.1c0-0.2,0-0.4,0-0.5C6.5,29.1,6.5,29.3,6.5,29.4z"/>
<path class="st1" d="M39.6,29.8c0-0.1,0-0.2,0-0.3c0,0.5-0.1,1-0.3,1.3C39.4,30.6,39.5,30.2,39.6,29.8z"/>
<path class="st1" d="M21,33.2c0,1.1,0,2.1,0,3.2l0,0C21,35.3,21,34.3,21,33.2L21,33.2z"/>
<path class="st1" d="M41,21.9c0-2.7,0-7.3,0-9.9l-1.4,0.4c0,3.7,0,9.7,0,13.5c0,0.1,0,0.2,0,0.4l0,0l0,0c-1.1,0-2.1,0-3.2,0l0,0h-7
	l0,0l0,0l0,0H37h0.8H37h-7.6h-3.5h-5.6c-1.2,0-2.3,0-3.5,0H9.1H8.3h0.8h7.6l0,0l0,0l0,0h-7l0,0c-1.1,0-2.1,0-3.2,0l0,0l0,0
	c0-0.1,0-0.3,0-0.4c0-3.7,0-8.8,0-12.5H5.1c0,5.4,0,10.9,0,16.3c0,0.3,0,0.6,0.1,0.9c0,0.2,0.1,0.3,0.1,0.5l0,0
	c0.1,0.3,0.3,0.6,0.5,0.9l0,0c0.2,0,0.3,0.1,0.5,0.2c0,0,0.1,0,0.1,0.1c0.1,0.1,0.2,0.2,0.4,0.3l0,0c0.6,0.4,1.3,0.6,2,0.6
	c0.8,0,1.7,0,2.5,0c2.6,0,5.2,0,7.8,0l0,0c0.1,0,0.3,0,0.4,0l0,0c0,1.1,0,2.1,0,3.1l0,0v0.1c-0.2,0-0.4,0-0.5,0h-0.1
	c-0.3,0-0.6,0.1-1,0.2c-0.1,0-0.3,0.1-0.4,0.1s-0.2,0.1-0.3,0.1c0,0-0.1,0-0.1,0.1c-0.1,0.1-0.3,0.2-0.4,0.3l-0.1,0.1
	c-0.1,0.1-0.2,0.2-0.3,0.3l-0.1,0.1c-0.1,0.1-0.2,0.3-0.3,0.4l0,0c-0.2,0.4-0.3,0.8-0.4,1.2c0,0.1,0,0.1,0,0.2c0,0.1,0,0.2,0,0.3
	v0.1c0,0.1,0.1,0.2,0.1,0.2s0,0,0,0.1c0.2,0.2,0.4,0.3,0.8,0.3l0,0c2.2,0,4.5,0,6.7,0s4.5,0,6.7,0l0,0c0.4,0,0.7-0.1,0.8-0.3
	c0,0,0,0,0-0.1s0.1-0.1,0.1-0.2v-0.1c0-0.1,0-0.2,0-0.3s0-0.1,0-0.2c-0.1-0.4-0.2-0.8-0.4-1.2l0,0c-0.1-0.2-0.2-0.3-0.3-0.4
	c0-0.1-0.1-0.1-0.1-0.1c-0.1-0.1-0.2-0.2-0.3-0.3l-0.1-0.1c-0.1-0.1-0.2-0.2-0.4-0.3c0,0-0.1,0-0.1-0.1c-0.1-0.1-0.2-0.1-0.3-0.1
	c-0.1-0.1-0.3-0.1-0.4-0.1c-0.3-0.1-0.6-0.1-1-0.2h-0.1c-0.2,0-0.3,0-0.5,0v-0.1l0,0c0-1,0-2.1,0-3.1l0,0c0.1,0,0.3,0,0.4,0l0,0
	c2.6,0,5.2,0,7.8,0c0.8,0,1.7,0,2.5,0c0.7,0,1.5-0.2,2-0.6l0,0c0.1-0.1,0.3-0.2,0.4-0.3c0,0,0.1,0,0.1-0.1c0.1-0.1,0.2-0.2,0.3-0.3
	l0,0c0.2-0.3,0.4-0.6,0.5-0.9l0,0c0.1-0.1,0.1-0.3,0.1-0.5c0.1-0.3,0.1-0.6,0.1-0.9C41,27,41,24.4,41,21.9z M27.2,37.8L27.2,37.8
	L27.2,37.8c0.2,0,0.3,0,0.5,0.1c0.1,0,0.1,0,0.2,0c0.2,0.1,0.3,0.1,0.5,0.2h0.1c0.3,0.2,0.5,0.5,0.7,0.9l0.1,0.1l0,0
	c-4.1,0-8.2,0-12.3,0l0,0c0-0.1,0.1-0.1,0.1-0.1c0.1-0.4,0.4-0.7,0.7-0.9h0.1c0.1-0.1,0.3-0.2,0.5-0.2c0.1,0,0.1,0,0.2,0
	s0.3-0.1,0.4-0.1l0,0l0,0c1.2,0,2.4,0,3.7,0c0.1,0,0.2,0,0.4,0h0.1h0.1c0.1,0,0.2,0,0.4,0C24.7,37.8,26,37.8,27.2,37.8z M21,36.4
	c0-1.1,0-2.1,0-3.2l0,0c1.4,0,2.7,0,4.1,0l0,0c0,1.1,0,2.1,0,3.2l0,0C23.8,36.4,22.4,36.4,21,36.4L21,36.4z M39.6,28.3
	c0,0.2,0,0.4,0,0.7c0,0.1,0,0.3,0,0.4v0.1c0,0.1,0,0.2,0,0.3c0,0.4-0.1,0.7-0.3,1l0,0c-0.1,0.1-0.1,0.2-0.2,0.3
	c-0.1,0.1-0.1,0.1-0.2,0.2c-0.1,0.1-0.1,0.1-0.2,0.2c0,0,0,0-0.1,0c-0.3,0.2-0.6,0.3-1,0.3c-0.1,0-0.3,0-0.4,0l0,0
	c-4.7,0-9.4,0-14.1,0s-9.4,0-14.1,0l0,0c-0.1,0-0.3,0-0.4,0c-0.4,0-0.7-0.1-1-0.3c0,0,0,0-0.1,0c-0.1-0.1-0.2-0.1-0.2-0.2
	c-0.1,0-0.1-0.1-0.2-0.2C7,31,6.9,30.9,6.9,30.9l0,0c-0.2-0.3-0.3-0.6-0.3-1c0-0.1,0-0.2,0-0.3v-0.1c0-0.1,0-0.3,0-0.4
	c0-0.2,0-0.4,0-0.7c0-0.2,0-0.4,0-0.7l0,0c11,0,22,0,33,0l0,0C39.6,27.9,39.6,28.1,39.6,28.3z"/>
<path class="st1" d="M28.4,36.6c-0.1,0-0.1,0-0.2,0c0.1,0,0.3,0.1,0.4,0.1C28.6,36.7,28.5,36.7,28.4,36.6z"/>
<path class="st1" d="M6.7,32.6L6.7,32.6L6.7,32.6z"/>
<path class="st1" d="M6.3,32.3C6.3,32.3,6.3,32.2,6.3,32.3C6.3,32.2,6.3,32.3,6.3,32.3z"/>
<path class="st1" d="M5.9,31.9L5.9,31.9L5.9,31.9z"/>
<path class="st1" d="M11.3,33.2c2.6,0,5.2,0,7.8,0l0,0C16.5,33.2,13.9,33.2,11.3,33.2z"/>
<path class="st1" d="M39.4,32.6L39.4,32.6L39.4,32.6z"/>
<path class="st1" d="M40.2,31.9L40.2,31.9L40.2,31.9z"/>
<path class="st1" d="M39.9,32.2C39.8,32.2,39.8,32.3,39.9,32.2C39.8,32.3,39.8,32.2,39.9,32.2z"/>
<path class="st1" d="M17.7,36.6c-0.1,0-0.2,0.1-0.3,0.1c0.1-0.1,0.3-0.1,0.4-0.1C17.9,36.6,17.8,36.6,17.7,36.6z"/>
<path class="st1" d="M27,33.2c2.6,0,5.2,0,7.8,0C32.2,33.2,29.6,33.2,27,33.2L27,33.2z"/>
<path class="st1" d="M23.1,26.2h-2.8l0,0h5.6l0,0H23.1z"/>
<path class="st1" d="M18.4,18.5v-1.6c-0.3,0-0.6,0-0.9,0V17v0.9v0.9c0,0.1,0,0.1,0,0.2v0.1c0,0,0,0,0,0.1l0.1,0.1l3.7,1.5
	c0-0.3,0-0.6,0-1L18.4,18.5z"/>
<path class="st1" d="M23.7,20.3v-3.5c-0.3,0-0.6,0-0.9,0v2c0.2,0,0.3,0,0.5,0c0,0.2,0,0.4,0,0.6c-0.1,0-0.2,0-0.3,0
	c-0.1,0-0.2,0-0.2,0.1V20c0.1,0.1,0.1,0.1,0.2,0.1s0.2,0,0.3,0c0,0.3,0,0.6,0,0.9c-0.1,0-0.2,0-0.3,0c-0.2,0-0.3,0.1-0.3,0.2h0.1
	v0.3c0.1,0.1,0.1,0.1,0.2,0.1s0.2,0,0.3,0c0,0.3,0,0.6,0,0.9c-0.5,0-0.9,0.3-0.9,0.5c0,0.2,0.4,0.5,0.9,0.1c0,0.3-0.2,0.7-0.2,0.9
	c0.1,0,0.3,0.2,0.3,0.1l1.1-1.2c0.2-0.2,0.2-0.5,0-0.6c-0.2-0.1-0.5-0.2-0.6,0l-0.1,0.1v-1.3l3.1-1c0-0.3-0.4-0.5-0.4-0.9L23.7,20.3
	z"/>
<path class="st1" d="M31.1,11.8C31.1,11.7,31.1,11.7,31.1,11.8c0-0.1,0-0.1,0-0.1l0,0c0,0,0-0.1-0.1-0.1l0,0l-0.1-0.1l-1.3-0.4
	c-0.2-0.1-0.5,0-0.6,0.3c-0.1,0.2,0,0.5,0.3,0.6h0.2l-0.9,0.4l-5.1-1.7c-0.1,0-0.2,0-0.3,0l-5.1,1.7L16.8,12h0.1
	c0.2-0.1,0.4-0.3,0.3-0.6c-0.1-0.2-0.3-0.4-0.6-0.3l-1.3,0.4c0,0-0.1,0-0.1,0.1l0,0l-0.1,0.1l0,0v0.1l0,0v0.1l0.4,1.3
	c0.1,0.2,0.3,0.4,0.6,0.3c0.2-0.1,0.4-0.3,0.3-0.6L16,12.5l1.5,0.5v2.6v0.6v0.1c0.3,0,0.6,0,0.9,0v-3l4.4,1.5l-0.1,8.6
	c0.3,0,0.5,0,0.8,0l0.2-8.6l4.4-1.5v5.2L26,19.4c-3.4,1.6-2.4,1.8-2.4,2.2l3.2-1.5l0,0l0.9-0.4l0,0l0.4-0.2l0.6-0.3
	c0.1-0.1,0.1-0.1,0.1-0.1s0,0,0.1-0.1c0,0,0,0,0-0.1s0-0.1,0-0.2v-5.8l1-0.4l-0.1,0.4l0,0c-0.1,0.2,0,0.5,0.3,0.6h0.1
	c0.2,0,0.4-0.1,0.4-0.3l0.4-1.3C31.1,11.8,31.1,11.8,31.1,11.8z M23.2,14l-3.9-1.3l3.9-1.3l3.9,1.3L23.2,14z"/>
<path class="st1" d="M23,21.1c0.1,0,0.2,0,0.3,0c0-0.3,0-0.6,0-0.9c-0.1,0-0.2,0-0.3,0c-0.1,0-0.2,0-0.2-0.1v0.3l-2.1-0.9
	c0,0.3-0.3,0.5-0.3,0.9l2.4,1C22.8,21.2,22.8,21.1,23,21.1z"/>
<path class="st1" d="M23,19.5c0.1,0,0.2,0,0.3,0c0-0.2,0-0.4,0-0.6c-0.2,0-0.3,0-0.5,0v0.7C22.8,19.6,22.9,19.5,23,19.5z"/>
<path class="st1" d="M22.6,22.9c0-0.2,0.1-0.3,0.6-0.3c0-0.3,0-0.6,0-0.9c-0.1,0-0.2,0-0.3,0c-0.1,0-0.2,0-0.2-0.1v1l-0.1-0.1
	c-0.2-0.2-0.5-0.2-0.6,0c-0.2,0.2-0.2,0.5,0,0.6l0.9,0.9l0,0c0.1,0.1,0.2,0.1,0.4,0.1c0-0.3,0-0.6,0-0.8
	C22.8,23.2,22.6,23.1,22.6,22.9z"/>
<path class="st1" d="M18.4,16.3c-0.3,0-0.6,0-0.9,0v0.6c0.3,0,0.6,0,0.9,0V16.3z"/>
<path class="st1" d="M24.3,29c-0.7,0-1.3,0-2,0s-1.3,0-2,0c-0.5,0-0.8,0.3-0.8,0.7c0,0.4,0.3,0.7,0.8,0.7c1.3,0,2.6,0,3.9,0
	c0.5,0,0.8-0.3,0.8-0.7C25.1,29.3,24.8,29,24.3,29z"/>
<path class="st1" d="M27.3,29c-0.4,0-0.7,0.3-0.7,0.7c0,0.4,0.3,0.7,0.7,0.7c0.4,0,0.7-0.3,0.7-0.7S27.6,29,27.3,29z"/>
</svg>
