<?xml version="1.0" encoding="utf-8"?>
<!-- Generator: Adobe Illustrator 24.1.3, SVG Export Plug-In . SVG Version: 6.00 Build 0)  -->
<svg version="1.1" id="Livello_1" xmlns="http://www.w3.org/2000/svg" xmlns:xlink="http://www.w3.org/1999/xlink" x="0px" y="0px"
	 viewBox="0 0 45.4 43.4" style="enable-background:new 0 0 45.4 43.4;" xml:space="preserve">
<style type="text/css">
	.st0{fill:#D92B4F;}
	.st1{fill:#FFFFFF;}
</style>
<g>
	<circle class="st0" cx="13.1" cy="14.3" r="2.4"/>
	<path class="st1" d="M40.2,6.7c-0.5-0.8-1.3-1.2-2.2-1.4c-0.1,0-0.1,0-0.2-0.1c-0.6,0-1.1,0-1.7,0c0,0.5,0,0.9,0,1.4
		c0.3,0,0.6,0,0.9,0c1.5,0,2.4,0.9,2.4,2.4c0,5.7,0,11.5,0,17.2c0,0.1,0,0.2,0,0.4c-1.1,0-2.1,0-3.2,0c0-0.1,0-0.3,0-0.4
		c0-5.1,0-10.2,0-15.4c0-0.8-0.2-1-1-1c-1.7,0-3.4,0-5,0c-0.7,0-1,0.2-1,1c0,5.1,0,10.3,0,15.4c0,0.1,0,0.3,0,0.4
		c-1.2,0-2.3,0-3.5,0c0-0.1,0-0.2,0-0.3c-0.1-2.4-0.2-4.7-0.6-7.1c0-0.2,0-0.3,0.2-0.5c1.3-1.2,1.6-2.9,0.7-4.4
		c-0.8-1.4-1.6-2.7-2.3-4.1c-0.3-0.5-0.9-0.6-1.2-0.1c-0.9,1.5-1.8,3-2.6,4.5c-0.7,1.3-0.4,2.9,0.7,3.9c0.1,0.1,0.2,0.3,0.2,0.5
		c-0.4,2.4-0.5,4.8-0.6,7.2c0,0.1,0,0.3,0,0.4h17.5H20.1c-1.2,0-2.3,0-3.5,0H9h7.6c0-0.1,0-0.3,0-0.4c0-3.3,0-6.5,0-9.8
		c0-0.3-0.1-0.6-0.2-0.8c-0.8-1.7-1.7-3.4-2.6-5.2c-0.2-0.3-0.3-0.6-0.7-0.6c-0.4,0-0.6,0.3-0.7,0.6c-0.9,1.7-1.7,3.5-2.6,5.2
		c-0.1,0.2-0.2,0.5-0.2,0.8c0,3.3,0,6.5,0,9.8c0,0.1,0,0.3,0,0.4c-1.1,0-2.1,0-3.2,0c0-0.1,0-0.3,0-0.4c0-5.7,0-11.5,0-17.2
		c0-1.5,0.9-2.4,2.4-2.4c8.9,0,17.8,0,26.8,0c0,0,0-0.1-0.1-0.1c-0.4-0.6-1-1-1.7-1.3c-8.6,0-17.2,0-25.7,0C7.4,5.5,6.8,5.6,6.3,6.1
		C5.5,6.8,5.1,7.6,5,8.7c0,0.6,0,1.2,0,1.7C5,17,5,23.5,5,30c0,1.5,0.6,2.6,2,3.3c0.5,0.3,1.1,0.4,1.7,0.4c3.4,0,6.9,0,10.3,0
		c0.1,0,0.3,0,0.4,0c0,1.1,0,2.1,0,3.1c-0.6,0.1-1.2,0.1-1.8,0.3c-1.4,0.4-2.4,1.8-2.4,3.2c0,0.4,0.3,0.7,0.7,0.7c0.1,0,0.2,0,0.3,0
		c4.5,0,8.9,0,13.4,0c0.8,0,1.1-0.3,1-1.1c-0.3-1.8-1.7-3.1-3.6-3.1c-0.2,0-0.3,0-0.5,0c0-1.1,0-2.1,0-3.2c0.1,0,0.3,0,0.4,0
		c3.4,0,6.8,0,10.2,0c1.8,0,3.4-1.1,3.7-2.9c0,0,0-0.1,0.1-0.1c0-7.5,0-14.9,0-22.4C40.6,7.7,40.5,7.2,40.2,6.7z M24.3,26.6
		c-0.9,0-1.8,0-2.7,0c0-0.4,0-0.9,0-1.4c0.9,0,1.8,0,2.7,0C24.3,25.7,24.3,26.2,24.3,26.6z M21.6,23.8c0.2-1.4,0.3-2.9,0.4-4.3
		c0.6,0,1.2,0,1.8,0c0.1,1.4,0.3,2.8,0.4,4.3C23.4,23.8,22.5,23.8,21.6,23.8z M24.6,17.6c-0.6,0.6-1.5,0.8-2.3,0.5
		c-1.1-0.4-1.6-1.7-1.1-2.8c0.6-1.1,1.3-2.2,1.9-3.3c0.1,0,0.1,0.1,0.1,0.1c0.6,1,1.2,2.1,1.8,3.1C25.3,16,25.2,16.9,24.6,17.6z
		 M34.8,26.6c-1.4,0-2.8,0-4.2,0c0-5.1,0-10.2,0-15.3c1.4,0,2.7,0,4.1,0c0,0.4,0,0.9,0,1.4c-0.2,0-0.4,0-0.6,0
		c-0.5,0-0.8,0.3-0.8,0.7c0,0.4,0.3,0.7,0.8,0.7c0.2,0,0.4,0,0.6,0c0,0.7,0,1.4,0,2.1c-0.2,0-0.4,0-0.6,0c-0.5,0-0.8,0.3-0.8,0.7
		c0,0.4,0.3,0.7,0.8,0.7c0.2,0,0.4,0,0.6,0c0,0.7,0,1.4,0,2.1c-1.1,0.1-1.4,0.2-1.4,0.7c0,0.5,0.3,0.7,1.4,0.7c0,0.9,0,1.8,0,2.8
		c-0.2,0-0.4,0-0.6,0c-0.5,0-0.8,0.3-0.8,0.7s0.3,0.7,0.8,0.7c0.2,0,0.4,0,0.6,0C34.8,25.7,34.8,26.2,34.8,26.6z M15.2,26.6
		c-0.4,0-0.9,0-1.3,0c0-3.2,0-6.5,0-9.8c0.5,0,0.9,0,1.3,0C15.2,20.1,15.2,23.4,15.2,26.6z M13.1,12.1c0.6,1.1,1.1,2.2,1.7,3.3
		c-1.1,0-2.2,0-3.3,0C12,14.4,12.6,13.3,13.1,12.1z M11.1,16.9c0.4,0,0.9,0,1.4,0c0,3.2,0,6.5,0,9.7c-0.4,0-0.9,0-1.4,0
		C11.1,23.4,11.1,20.2,11.1,16.9z M27.1,38.3c0.9,0,1.7,0.6,2,1.4c-4.1,0-8.2,0-12.3,0c0.3-0.9,1-1.4,2-1.4c1.4,0,2.8,0,4.2,0
		C24.4,38.3,25.8,38.3,27.1,38.3z M20.9,36.9c0-1.1,0-2.1,0-3.2c1.4,0,2.8,0,4.2,0c0,1,0,2.1,0,3.2C23.6,36.9,22.3,36.9,20.9,36.9z
		 M39.4,30.3c-0.1,1.1-0.9,1.9-2,2c-0.1,0-0.3,0-0.4,0c-9.4,0-18.8,0-28.2,0c-1.6,0-2.4-0.8-2.4-2.4c0-0.6,0-1.2,0-1.8
		c11,0,22,0,33,0C39.4,28.8,39.5,29.6,39.4,30.3z"/>
	<path class="st1" d="M35.5,6.5c0,0,0,0.1,0.1,0.1c0.2,0,0.4,0,0.6,0c0-0.5,0-0.9,0-1.4c-0.8,0-1.6,0-2.4,0
		C34.5,5.5,35.1,5.9,35.5,6.5z"/>
	<path class="st1" d="M24.2,29.5c-0.7,0-1.3,0-2,0c-0.7,0-1.3,0-2,0c-0.5,0-0.8,0.3-0.8,0.7c0,0.4,0.3,0.7,0.8,0.7
		c1.3,0,2.6,0,3.9,0c0.5,0,0.8-0.3,0.8-0.7C25,29.7,24.7,29.5,24.2,29.5z"/>
	<path class="st1" d="M27.1,29.5c-0.4,0-0.7,0.3-0.7,0.7c0,0.4,0.3,0.7,0.7,0.7c0.4,0,0.7-0.3,0.7-0.7
		C27.8,29.8,27.5,29.5,27.1,29.5z"/>
</g>
</svg>
