<?xml version="1.0" encoding="utf-8"?>
<!-- Generator: Adobe Illustrator 26.0.3, SVG Export Plug-In . SVG Version: 6.00 Build 0)  -->
<svg version="1.1" id="Livello_1" xmlns="http://www.w3.org/2000/svg" xmlns:xlink="http://www.w3.org/1999/xlink" x="0px" y="0px"
	 viewBox="0 0 150.7 185.7" style="enable-background:new 0 0 150.7 185.7;" xml:space="preserve">
<style type="text/css">
	.st0{opacity:0.1;enable-background:new    ;}
	.st1{fill:none;}
</style>
<path class="st0" d="M55,185.7c3.4-3.4,6.7-6.8,9.1-9.6c1-1.2,3.4-3.7,3.4-7.1c0-0.7,0-1.2-0.1-1.7c-0.4-3.1-2.5-5.9-5.4-7.2
	c-1.4-0.7-2.9-0.9-4.3-0.9l-2.8,0.1l-4.1,0.1h-7.1c-0.1-0.1-0.1-13.5-0.1-15.7c-0.1-1.6-0.7-3-1.4-4.5c-0.9-1.3-2.1-2.4-3.4-3.1
	c-2.1-1-4.5-1.4-6.7-0.9c-2.1,0.4-3.9,1.6-5.1,3.3c-0.5,0.7-1,1.4-1.3,2.1s-0.4,1.4-0.7,2.1c-0.1,0.9-0.1,1.8-0.1,2.6
	c0,0.7,0,0.9,0,2.5c0,0.9,0,1.8,0,2.9v4.7c0,2.1,0,3.4,0,3.4v0.4h-4.2c-1,0-2.1,0-3.3,0c-1.6,0-3,0-4.5,0c-2.1,0-4.5,0.1-4.5,0.1
	l-0.5,0.4c0,0-3,0.9-5,2.6c-2.6,2.5-3.7,6.2-2.6,9.7c0.4,1.2,1,2.2,1.8,3.3c0,0,1.2,1.2,2.6,2.8c0.9,0.9,1.8,1.8,2.6,2.6
	c0.7,0.7,1.4,1.4,2.1,2.1l2.4,2.4l0.4,0.4H2.8c-0.9-0.9-1.6-1.6-2.2-2.2L0,182.9v-27.2c1-1,2.4-1.7,3.7-2.2c0.9-0.4,1.6-0.7,2.5-1
	c0.9-0.3,1.7-0.4,2.5-0.7c0.7-0.1,1.6-0.1,2.2-0.1s1.2,0,1.8,0.1c1.4,0.1,3.7,0.1,3.7,0.1h0.9v-4.9l-0.3-4.6c0,0,0-2.1,0.1-2.6
	c0.1-0.3,0.1-0.5,0.1-0.7c0.1-0.1,0.1-0.4,0.3-0.7c0.1-0.1,0.3-0.7,0.3-0.7c0.3-0.7,0.7-1,0.9-1.6c1.8-2.9,4.5-5.2,7.6-6.7
	c3.9-1.8,8.4-2.1,12.6-0.9c3,0.9,5.6,2.6,7.7,5c1,1.2,1.8,2.4,2.5,3.7c0.5,0.9,0.9,1.8,1.2,2.8c0.4,1.4,0.7,2.8,0.7,4.2
	c0,0.7-0.1,2.6-0.1,2.6s-0.1,1.2-0.1,1.8c0,0.5-0.1,1.8-0.1,1.8v1.4c0,0,2.8-0.1,3.9,0c1,0,2.2-0.1,3.7,0c0.9,0,1.7,0,2.4,0
	c0.7,0,1.2,0,1.8,0.1c1.4,0.4,2.9,0.9,4.2,1.6c2.9,1.8,5.2,4.3,6.8,7.5c1,2.1,1.6,4.6,1.8,7c0,2.6-0.4,5.1-1.4,7.6
	c-0.9,2.4-2.6,4.5-4.5,6.2c-0.7,0.7-1.8,1.8-3.7,3.7L55,185.7z"/>
<line class="st1" x1="0" y1="185.7" x2="0" y2="180.1"/>
<line class="st1" x1="5.6" y1="185.7" x2="0" y2="185.7"/>
</svg>
