<?xml version="1.0" encoding="utf-8"?>
<!-- Generator: Adobe Illustrator 26.0.3, SVG Export Plug-In . SVG Version: 6.00 Build 0)  -->
<svg version="1.1" id="Livello_1" xmlns="http://www.w3.org/2000/svg" xmlns:xlink="http://www.w3.org/1999/xlink" x="0px" y="0px"
	 viewBox="0 0 56.3 110.5" style="enable-background:new 0 0 56.3 110.5;" xml:space="preserve">
<style type="text/css">
	.st0{opacity:0.1;fill:#FFFFFF;enable-background:new    ;}
</style>
<path class="st0" d="M35.7,49.7l5.2-4.5c0,0,2.2-2.2,2.8-3.1c0.1-0.1,0.6-0.6,0.6-0.9c0.1-0.1,0.3-0.6,0.4-0.7
	c0.1-0.1,0.4-0.9,0.4-0.9s0.4-0.9,0.7-2.6c1-4.4,1-10-0.7-15.1c-2-5.8-6.6-11.2-12.5-14.4C28,5.2,23.2,4.3,19.2,4.6
	c-2.5,0.1-4.7,0.6-6.6,1.2c-2.3,0.6-3.9,1.5-4.4,1.7c-2.5,1.2-3.9,2.6-5.1,3.8c-0.6,0.7-2.8,3.1-2.8,3.1s-0.1,0-0.4,0.3v15
	c4.4-4.4,10.2-10,11.6-11.6c1-1,3.2-2.6,6.3-3.2c2.2-0.4,4.7-0.6,7,0.3c3.2,1,6.1,3.2,8,6.1c1.9,2.9,2.3,5.8,2,9.2
	c-0.1,1.2-0.6,2.6-1,3.6c-0.3,0.7-1.2,2.2-1.7,2.9c-0.6,0.6-2,2.5-2.8,3.1c-0.6,0.6-0.7,0.7-2.6,2.6c-1,0.9-1.9,1.9-3.1,3.1
	c-1.7,1.7-3.3,3.3-5,5c-2,2-3.6,3.6-3.6,3.6l-0.4,0.4l0.7,0.7l1.7,1.7c0,0,1.2,1,1.7,1.7c1,1,2.3,2.2,3.3,3.3
	c1.6,1.7,3.2,3.2,4.8,4.7c2.2,2.2,4.5,5,4.5,5l0.6,0.6c0,0,2.3,4.1,2.3,8.2c0,6.1-3.5,10.9-7.6,13.1c-1.9,1-4.2,1.5-5.4,1.6
	c0,0-2.5-0.1-5.7,0c-1.7,0-3.8,0-5.7,0c-1.6,0-3.1,0-4.4,0c-2.3,0-5.1,0-5.1,0H0.1L0,95.8v10.2c2.3,0,4.7,0,7.1,0c3.1-0.1,6,0,8.3,0
	c2.9,0,4.7-0.1,4.7-0.1c1.7-0.1,3.9-0.4,6.7-1.2c1.9-0.6,4.7-1.5,7.7-3.6c3.1-2,4.7-4.4,6.3-6.6c1.9-2.3,2.6-4.5,3.5-7.4
	c1-3.1,1-5,1-8.2c-0.1-3.1-0.6-5.4-1.6-8.2c-0.6-1.5-1-2.5-1.7-3.6c-0.6-0.7-1.3-2-2-3.2c-0.6-0.7-1.5-1.7-2.3-2.5
	c-0.7-0.6-1.3-1.2-2-1.9c-1.6-1.5-3.9-3.9-3.9-3.9l-1-0.7l0.3-0.3L35.7,49.7z"/>
</svg>
