<?xml version="1.0" encoding="utf-8"?>
<!-- Generator: Adobe Illustrator 24.1.3, SVG Export Plug-In . SVG Version: 6.00 Build 0)  -->
<svg version="1.1" id="Livello_1" xmlns="http://www.w3.org/2000/svg" xmlns:xlink="http://www.w3.org/1999/xlink" x="0px" y="0px"
	 viewBox="0 0 174.2 54" style="enable-background:new 0 0 174.2 54;" xml:space="preserve">
<style type="text/css">
	.st0{fill:#293145;}
</style>
<g>
	<path class="st0" d="M66.4,19.4l5.4,9.4l5.4-9.4h0.9v0.1v14.4h-0.8v-13l-5.5,9.5l-5.5-9.5v13h-0.8V19.5v-0.1H66.4L66.4,19.4z"/>
	<path class="st0" d="M90.4,33.8h-0.8V32c-0.2,0.2-0.3,0.4-0.5,0.6c-1,1-2.1,1.5-3.5,1.5s-2.5-0.5-3.5-1.5c-1-1-1.5-2.1-1.5-3.5
		s0.5-2.5,1.5-3.5s2.1-1.5,3.5-1.5s2.5,0.5,3.5,1.5c0.2,0.2,0.4,0.4,0.5,0.6V25h0.8V33.8z M89.6,29.9v-1.6c-0.1-0.8-0.5-1.5-1.1-2.1
		c-0.8-0.8-1.8-1.2-2.9-1.2s-2.1,0.4-2.9,1.2c-0.8,0.8-1.2,1.8-1.2,2.9s0.4,2.1,1.2,2.9c0.8,0.8,1.8,1.2,2.9,1.2s2.1-0.4,2.9-1.2
		C89.1,31.4,89.4,30.7,89.6,29.9z"/>
	<path class="st0" d="M93.1,25h0.8v1.6c0.2-0.2,0.4-0.5,0.6-0.7c0.7-0.7,1.5-1.1,2.2-1.1v0.9c-0.5,0-1,0.3-1.6,0.9
		c-0.8,0.8-1.2,1.7-1.2,2.8V34h-0.8V25z"/>
	<path class="st0" d="M100.2,25v-3.8h0.8V25h1.8v0.8H101v8h-0.8v-8h-1.8V25H100.2z"/>
	<path class="st0" d="M114.5,33.8h-0.8V32c-0.2,0.2-0.3,0.4-0.5,0.6c-1,1-2.1,1.5-3.5,1.5s-2.5-0.5-3.5-1.5c-1-1-1.5-2.1-1.5-3.5
		s0.5-2.5,1.5-3.5s2.1-1.5,3.5-1.5s2.5,0.5,3.5,1.5c0.2,0.2,0.4,0.4,0.5,0.6V25h0.8V33.8z M113.7,29.9v-1.6
		c-0.1-0.8-0.5-1.5-1.1-2.1c-0.8-0.8-1.8-1.2-2.9-1.2s-2.1,0.4-2.9,1.2c-0.8,0.8-1.2,1.8-1.2,2.9s0.4,2.1,1.2,2.9
		c0.8,0.8,1.8,1.2,2.9,1.2s2.1-0.4,2.9-1.2C113.2,31.4,113.5,30.7,113.7,29.9z"/>
</g>
<g>
	<path class="st0" d="M120.1,19.4c0.8,0,1.5,0.3,2.1,0.9s0.9,1.3,0.9,2.1c0,0.9-0.4,1.4-1.3,1.6c0.6,0.1,1.3,0.5,2.1,1.3
		c0.8,0.8,1.2,1.9,1.2,3.3s-0.5,2.6-1.5,3.7c-0.9,1-1.9,1.5-2.8,1.5l0,0h-3.7V19.4H120.1L120.1,19.4z M119.1,21.3v2.3h1.2
		c0.3,0,0.5-0.1,0.7-0.3c0.2-0.2,0.3-0.5,0.3-0.8s-0.1-0.6-0.3-0.8s-0.5-0.3-0.9-0.3L119.1,21.3L119.1,21.3z M119.1,25.5V32h1.8l0,0
		c0.4,0,0.9-0.3,1.4-0.9c0.6-0.6,1-1.4,1-2.3s-0.3-1.6-0.9-2.3c-0.6-0.6-1.4-0.9-2.3-0.9h-1V25.5z"/>
	<path class="st0" d="M130.3,31.7c0.3,0.3,0.9,0.4,1.7,0.4c0.9,0,1.6-0.3,2.3-0.9c0.1-0.1,0.2-0.3,0.5-0.6l1.9,0.7
		c-0.5,0.6-0.8,1-1,1.3c-1,1-2.2,1.5-3.6,1.5s-2.6-0.5-3.6-1.5c-1-1-1.5-2.2-1.5-3.6s0.5-2.6,1.5-3.6s2.2-1.5,3.6-1.5
		c1.2,0,2.3,0.4,3.2,1.1c0.1,0.1,0.3,0.3,0.4,0.4c0.1,0.1,0.2,0.3,0.5,0.6l-0.9,1L130.3,31.7z M133.4,26c-0.2-0.2-0.7-0.2-1.4-0.2
		c-0.9,0-1.6,0.3-2.3,0.9c-0.6,0.6-0.9,1.4-0.9,2.3c0,0.7,0.1,1.2,0.2,1.4L133.4,26z"/>
	<path class="st0" d="M140.7,19.4v14.5h-1.9V19.4H140.7z"/>
	<path class="st0" d="M145.3,19.4v14.5h-1.9V19.4H145.3z"/>
	<path class="st0" d="M150,21.1c0.3,0.3,0.4,0.6,0.4,0.9s-0.1,0.7-0.4,0.9s-0.6,0.4-0.9,0.4s-0.7-0.1-0.9-0.4s-0.4-0.6-0.4-0.9
		s0.1-0.7,0.4-0.9s0.6-0.4,0.9-0.4S149.7,20.9,150,21.1z M150,24.6v9.3h-1.9v-9.3C148.1,24.6,150,24.6,150,24.6z"/>
	<path class="st0" d="M154.7,27v6.8h-1.9v-9.3h1.9v1.1c0.4-1.1,1.2-1.6,2.4-1.6c1,0,1.8,0.4,2.4,1.1c0.6,0.7,0.9,1.6,0.9,2.7v6h-1.9
		v-6c0-0.5-0.2-1-0.6-1.4c-0.4-0.4-0.9-0.6-1.4-0.6s-1,0.2-1.4,0.6C154.9,26.7,154.8,26.9,154.7,27z"/>
	<path class="st0" d="M171.2,25.2v-0.6h1.9v9.3h-1.9v-1.2c-0.9,0.9-2,1.4-3.1,1.4c-1.4,0-2.6-0.5-3.6-1.5c-1-1-1.5-2.2-1.5-3.6
		s0.5-2.6,1.5-3.6s2.2-1.5,3.6-1.5C169.2,23.8,170.3,24.3,171.2,25.2z M171.2,29.6v-1.4c-0.1-0.6-0.4-1.1-0.9-1.6
		c-0.6-0.6-1.4-0.9-2.3-0.9c-0.9,0-1.6,0.3-2.3,0.9s-0.9,1.4-0.9,2.3s0.3,1.6,0.9,2.3c0.6,0.6,1.4,1,2.3,1c0.9,0,1.6-0.3,2.3-0.9
		C170.8,30.8,171.1,30.2,171.2,29.6z"/>
</g>
<g>
	<path class="st0" d="M44.4,32.5c0,0-0.9-1.1-1.8-1.9c-0.6-0.6-1.2-1.2-1.9-1.9c-0.5-0.5-0.9-0.9-1.3-1.3c-0.2-0.2-0.7-0.7-0.7-0.7
		L38,25.9l-0.3-0.3l0.2-0.2c0,0,0.6-0.6,1.4-1.4c0.6-0.6,1.2-1.2,1.9-1.9c0.4-0.4,0.8-0.8,1.2-1.2c0.7-0.7,0.8-0.8,1-1
		c0.2-0.2,0.9-0.9,1.1-1.2c0.2-0.2,0.5-0.9,0.6-1.1c0.2-0.5,0.4-1,0.4-1.5c0.1-1.2-0.1-2.5-0.8-3.6c-0.8-1.2-1.9-2-3.1-2.4
		c-0.9-0.3-1.9-0.2-2.7-0.1c-1.2,0.2-2,0.8-2.4,1.2c-0.9,0.9-6.5,6.5-6.6,6.5l-1.7-1.7L26.9,15l-1.6-1.8L24.3,12
		c-0.3-0.4-1.2-1.1-2.1-1.4c-1.9-0.7-3.8-0.3-5.2,0.8c-0.2,0.2-0.5,0.5-0.8,0.7c-1.4,1.4-1.5,3.4-1.5,4.3c-0.2,2.9-0.2,6.9-0.2,10.9
		c0,2.6,0,5.3,0,7.5c0,3.8,0,6.4,0,6.4s0,0-0.2,0.2s-0.5,0.5-0.6,0.6l-3.6,3.6c0-1.2-0.1-6.9,0-12.9c0-2.6,0-5.3,0-7.6
		c0-1.8,0-3.4,0-4.7c0-1.8,0-3.1,0-3.6c0.1-1.6,0.2-3.1,0.8-4.4c0.6-1.4,1.6-2.6,2.6-3.6s2.3-1.7,3.6-2.2c1.8-0.6,4-0.7,5.9-0.2
		c0.9,0.2,1.9,0.6,2.4,1c0.2,0.2,0.5,0.4,0.8,0.7c0.2,0,0.5,0.4,0.9,0.7c0.5,0.5,1.1,1.1,1.5,1.5c0.5,0.5,1.6,1.6,1.6,1.6l0.5-0.5
		c0,0,0.5-0.5,0.7-0.8c0.2-0.3,0.7-0.9,0.7-0.9s0.8-0.9,1-1.2c0.4-0.5,1.1-1,1.9-1.5c0.2-0.1,0.8-0.4,1.7-0.6
		c0.7-0.2,1.6-0.4,2.6-0.5c1.6-0.2,3.4,0.2,5.3,1.2c2.3,1.2,4,3.3,4.9,5.6c0.7,1.9,0.8,4.2,0.3,5.9c-0.2,0.7-0.3,1-0.3,1
		S49.4,20,49.3,20c0,0.1-0.1,0.2-0.2,0.3c-0.1,0.1-0.2,0.3-0.2,0.4c-0.2,0.3-1.1,1.2-1.1,1.2l-2,1.8l-1.9,1.9l-0.1,0.2l0.4,0.4
		c0,0,0.9,0.9,1.6,1.6c0.3,0.3,0.5,0.5,0.8,0.8c0.4,0.3,0.7,0.7,0.9,0.9c0.3,0.4,0.6,0.9,0.9,1.2c0.2,0.5,0.5,0.9,0.6,1.4
		c0.4,1.1,0.6,2,0.6,3.2c0,1.2,0,2-0.4,3.2c-0.4,1.1-0.6,1.9-1.4,2.9c-0.6,0.8-1.2,1.7-2.4,2.5c-1.2,0.9-2.3,1.2-3,1.4
		c-1.1,0.3-1.9,0.4-2.6,0.5c0,0-0.7,0-1.9,0c-0.9,0-2,0-3.3,0c-1.6,0-3.3,0-4.6,0c-1.2,0-1.9,0.1-2.2,0l4-4h0.3c0,0,1.1,0,2,0
		c0.5,0,1.1,0,1.7,0c0.8,0,1.6,0,2.3,0c1.2-0.1,2.3,0,2.3,0c0.5-0.1,1.4-0.2,2.1-0.6c1.6-0.9,3-2.7,3-5c0-1.6-0.9-3.2-0.9-3.2"/>
</g>
</svg>
