<?xml version="1.0" encoding="utf-8"?>
<!-- Generator: Adobe Illustrator 26.0.3, SVG Export Plug-In . SVG Version: 6.00 Build 0)  -->
<svg version="1.1" id="Livello_1" xmlns="http://www.w3.org/2000/svg" xmlns:xlink="http://www.w3.org/1999/xlink" x="0px" y="0px"
	 viewBox="0 0 149.73 163.12" style="enable-background:new 0 0 149.73 163.12;" xml:space="preserve">
<style type="text/css">
	.st0{fill:#010202;}
</style>
<path class="st0" d="M122.27,58.15c0,0-4.44-0.31-8.26-0.28c-2.61-0.01-5.44,0.08-8.27,0.03c-2.03-0.03-4.16,0.02-5.96,0
	c-1.09-0.01-3.08,0-3.08,0l-3.04,0l-1.45,0l0.03-0.72c0,0,0-2.65-0.01-6.29c0-2.62,0-5.63,0-8.58c0-1.78-0.03-3.54,0-5.21
	c0.06-3.11-0.03-3.41,0-4.55c0.09-1.06-0.16-4.08-0.3-4.99c-0.18-0.94-0.68-2.99-1.07-3.89c-0.58-1.33-1.39-2.92-2.36-4.09
	c-2.54-3.07-5.6-5.28-9.67-6.19c-4.23-0.97-8.71-0.34-12.29,1.55c-2.63,1.39-4.67,3.53-6.29,5.81c-2.1,2.97-2.76,6.27-2.74,8.1
	c0.08,4.19,0.01,28.9-0.13,29.05h-7.45l-5.49,0l-7.4-0.34l-5.09-0.3c-1.58-0.06-5.26,0.44-7.85,1.57c-5.72,2.5-9.11,7.9-9.92,13.32
	c-0.12,0.77-0.16,2.37-0.16,3.12c0,6.32,4.36,10.81,6.3,12.95c5.97,6.79,14.93,15.75,23.6,24.53c5.77,5.85,11.66,11.72,16.64,16.64
	c8.47,8.36,14.24,14.24,14.24,14.24s-0.06-0.01,0,0.66c0.06,0.65-0.05,1.97,0,2.58l-0.06,16.24c-2.83-2.72-15.38-15.16-28.61-28.61
	c-5.73-5.83-11.68-11.58-16.95-16.95c-3.9-3.97-7.61-7.55-10.57-10.57c-3.92-3.99-6.9-6.89-7.99-7.99
	c-3.25-3.47-6.46-7.21-8.13-11.48C0.79,83.16-0.03,78.16,0,73.67c0.03-4.4,1.44-8.9,3.22-12.76c2.47-5.33,7.22-10.34,12.51-13.58
	c2.45-1.5,5.6-2.7,7.63-3.01c0.94-0.14,2.05-0.16,3.32-0.16c1.29,0,2.75,0.03,4.38-0.03c2.38-0.08,4.73,0.05,6.56,0
	c2.02-0.09,7.12,0,7.12,0l0.03-2.46c0,0-0.14-2.3-0.15-3.27c-0.02-1.18-0.24-3.48-0.24-3.48s-0.23-3.63-0.25-4.84
	c-0.04-1.95,0.09-4.59,1.08-7.72c0.16-0.44,0.75-2.49,2.12-5.05c1.08-2.02,2.67-4.33,4.64-6.64c3.19-3.76,8.06-7.26,14.26-9.21
	c7.98-2.51,16.37-1.65,23.27,1.62c5.96,2.83,10.96,7.62,13.85,12.4c1.14,1.88,1.61,2.94,1.61,2.94s0.39,0.81,0.51,1.08
	c0.12,0.27,0.33,0.8,0.41,1.08c0.09,0.31,0.24,1.02,0.28,1.28c0.17,1.1,0.19,4.87,0.19,4.87l-0.57,8.53l0,8.34l0.02,0.52h1.69
	c0,0,4.17,0.04,6.84-0.08c1.3-0.06,2.19-0.06,3.44-0.11c1.52-0.07,3-0.04,4.17,0.11c1.67,0.22,3.52,0.66,4.64,0.98
	c1.58,0.46,2.89,0.97,4.58,1.72c3.34,1.42,5.79,3.17,8.4,5.68c2.77,2.67,4.43,4.46,6.19,7.94c1.66,3.2,2.95,5.83,3.41,9.45
	c0.46,3.13,0.96,6.61,0.17,10.99c-0.79,4.57-2.5,7.84-3.65,9.87c-1.67,3.01-3.44,5.28-4.78,6.81c0,0-1.54,1.66-3.98,4.11
	c-1.99,2.01-4.61,4.53-7.22,7.22c-3.47,3.59-7.29,7.34-10.17,10.17c-2.58,2.54-4.22,4.53-4.77,4.77l-0.01-17.89l0.7-0.7
	c0,0,2.36-2.37,4.43-4.43c1.2-1.2,2.5-2.45,3.83-3.83c1.66-1.71,3.4-3.4,4.96-4.96c2.73-2.93,4.91-4.99,4.91-4.99
	c0.92-1.19,2.58-3.52,3.33-6.03c1.7-5.38,0.56-12.49-4.57-17.73c-3.45-3.45-9.1-4.9-9.1-4.9"/>
</svg>
