<?xml version="1.0" encoding="utf-8"?>
<!-- Generator: Adobe Illustrator 26.0.3, SVG Export Plug-In . SVG Version: 6.00 Build 0)  -->
<svg version="1.1" id="Livello_1" xmlns="http://www.w3.org/2000/svg" xmlns:xlink="http://www.w3.org/1999/xlink" x="0px" y="0px"
	 viewBox="0 0 56.3 110.5" style="enable-background:new 0 0 56.3 110.5;" xml:space="preserve">
<style type="text/css">
	.st0{opacity:0.1;fill:#FFFFFF;enable-background:new    ;}
</style>
<path class="st0" d="M24.5,71.6l3.6-3.1c0,0,1.5-1.5,1.9-2.1c0.1-0.1,0.4-0.4,0.4-0.6c0.1-0.1,0.2-0.4,0.3-0.5
	c0.1-0.1,0.3-0.6,0.3-0.6s0.3-0.6,0.5-1.8c0.7-3,0.7-6.9-0.5-10.4c-1.4-4-4.5-7.7-8.6-9.9c-3.2-1.6-6.5-2.2-9.2-2
	c-1.7,0.1-3.2,0.4-4.5,0.8c-1.6,0.4-2.7,1-3,1.2C4,43.4,3,44.4,2.2,45.2c-0.4,0.5-1.9,2.1-1.9,2.1s-0.1,0-0.3,0.2v10.3
	c3-3,7-6.9,8-8c0.7-0.7,2.2-1.8,4.3-2.2c1.5-0.3,3.2-0.4,4.8,0.2c2.2,0.7,4.2,2.2,5.5,4.2c1.3,2,1.6,4,1.4,6.3
	c-0.1,0.8-0.4,1.8-0.7,2.5c-0.2,0.5-0.8,1.5-1.2,2c-0.4,0.4-1.4,1.7-1.9,2.1c-0.4,0.4-0.5,0.5-1.8,1.8c-0.7,0.6-1.3,1.3-2.1,2.1
	c-1.2,1.2-2.3,2.3-3.4,3.4c-1.4,1.4-2.5,2.5-2.5,2.5L10.1,75l0.5,0.5l1.2,1.2c0,0,0.8,0.7,1.2,1.2c0.7,0.7,1.6,1.5,2.3,2.3
	c1.1,1.2,2.2,2.2,3.3,3.2c1.5,1.5,3.1,3.4,3.1,3.4l0.4,0.4c0,0,1.6,2.8,1.6,5.6c0,4.2-2.4,7.5-5.2,9c-1.3,0.7-2.9,1-3.7,1.1
	c0,0-1.7-0.1-3.9,0c-1.2,0-2.6,0-3.9,0c-1.1,0-2.1,0-3,0c-1.6,0-3.5,0-3.5,0H0.1L0,103.2v7c1.6,0,3.2,0,4.9,0c2.1-0.1,4.1,0,5.7,0
	c2,0,3.2-0.1,3.2-0.1c1.2-0.1,2.7-0.3,4.6-0.8c1.3-0.4,3.2-1,5.3-2.5c2.1-1.4,3.2-3,4.3-4.5c1.3-1.6,1.8-3.1,2.4-5.1
	c0.7-2.1,0.7-3.4,0.7-5.6c-0.1-2.1-0.4-3.7-1.1-5.6c-0.4-1-0.7-1.7-1.2-2.5c-0.4-0.5-0.9-1.4-1.4-2.2c-0.4-0.5-1-1.2-1.6-1.7
	c-0.5-0.4-0.9-0.8-1.4-1.3c-1.1-1-2.7-2.7-2.7-2.7l-0.7-0.5l0.2-0.2L24.5,71.6z"/>
</svg>
