<svg id="Livello_1" data-name="Livello 1" xmlns="http://www.w3.org/2000/svg" viewBox="0 0 53.86 41.16"><defs><style>.cls-1{fill:#fff;}</style></defs><path class="cls-1" d="M53.86,15.54V42.66a19.07,19.07,0,0,1-.19,2.73,2,2,0,0,1-1.76,1.93,13.33,13.33,0,0,1-2.1.19H4.12a9.76,9.76,0,0,1-1.87-.15A2.42,2.42,0,0,1,.16,44.8a14.74,14.74,0,0,1,0-1.88V15.54L.78,16,23.6,33.5c.82.62,1.72,1.14,2.52,1.78a1.41,1.41,0,0,0,2.09,0c2.1-1.66,4.44-3.2,6.6-4.86C41.1,25.67,47.24,20.92,53.44,16Z" transform="translate(0 -6.35)"/><path class="cls-1" d="M27.25,6.35H49.5a10.25,10.25,0,0,1,2.28.22,2.44,2.44,0,0,1,2,2.56A1.84,1.84,0,0,1,53,11.05c-7.59,5.79-15.11,11.63-22.67,17.54-.88.69-1.82,1.26-2.7,1.9a1,1,0,0,1-1.37,0c-2.45-1.9-5-3.58-7.48-5.44C12.66,20.43,6.59,15.75.49,11.1A1.1,1.1,0,0,1,0,10a3.83,3.83,0,0,1,.15-1.3A2.51,2.51,0,0,1,2.65,6.47a17.22,17.22,0,0,1,1.76,0Z" transform="translate(0 -6.35)"/></svg>