<svg id="Livello_1" data-name="Livello 1" xmlns="http://www.w3.org/2000/svg" viewBox="0 0 40.26 40.26"><defs><style>.cls-1{fill:#fff;}</style></defs><path class="cls-1" d="M14.89,24.22A34,34,0,0,0,29.75,39a2.41,2.41,0,0,1,.3-.48c1.44-1.45,2.89-2.88,4.33-4.34A2.38,2.38,0,0,1,37,33.53a26.63,26.63,0,0,0,7.72,1.24,2.19,2.19,0,0,1,2.33,2.06,1.82,1.82,0,0,1,0,.33v7.5a2.3,2.3,0,0,1-2.17,2.4h-.21A38.1,38.1,0,0,1,7.77,17.6a38.13,38.13,0,0,1-1-8.38A2.23,2.23,0,0,1,8.86,6.81H16.7a2.21,2.21,0,0,1,2.39,2,1.71,1.71,0,0,1,0,.32,26.91,26.91,0,0,0,1.24,7.77,2.28,2.28,0,0,1-.61,2.5Z" transform="translate(-6.8 -6.8)"/></svg>